<svg width="41" height="60" viewBox="0 0 41 60" fill="none" xmlns="http://www.w3.org/2000/svg">
<path fill-rule="evenodd" clip-rule="evenodd" d="M26.4253 22.1075C27.376 22.3813 28.375 21.8497 28.6651 20.8992C28.9712 19.852 29.1324 18.7565 29.1324 17.6448C29.1324 11.3295 23.9921 6.17414 17.6595 6.17414C11.3429 6.17414 6.18654 11.3134 6.18654 17.6448C6.18654 19.0465 6.42825 20.4158 6.92777 21.7047C7.20171 22.4297 7.87848 22.8646 8.60358 22.8646C8.81305 22.8646 9.02255 22.8324 9.23201 22.7519C10.1666 22.3974 10.6339 21.3664 10.2794 20.4319C9.94102 19.5459 9.76376 18.6114 9.76376 17.6448C9.76376 13.3111 13.2927 9.76678 17.6433 9.76678C21.9779 9.76678 25.5229 13.295 25.5229 17.6448C25.5229 18.402 25.4101 19.1592 25.2006 19.8842C24.9267 20.8347 25.4746 21.8336 26.4253 22.1074L26.4253 22.1075Z" fill="#333333"/>
<path fill-rule="evenodd" clip-rule="evenodd" d="M40.0409 36.024C40.0409 35.9464 40.028 35.8687 40.0021 35.791C39.4195 33.2664 37.7366 31.6869 35.6135 31.6869C34.9921 31.6869 34.3966 31.8163 33.8529 32.0494C33.2704 30.2886 31.6133 29.0069 29.6585 29.0069C28.9335 29.0069 28.2475 29.1881 27.652 29.4988C26.927 28.0488 25.4253 27.0649 23.7035 27.0649C23.1598 27.0649 22.642 27.1684 22.163 27.3368V21.9509C22.163 19.5169 20.1823 17.5231 17.7356 17.5231C15.3018 17.5231 13.3082 19.504 13.3082 21.9509V40.413L11.7029 37.6294C11.1074 36.5549 10.1624 35.8169 9.02316 35.5321C7.92277 35.2602 6.74472 35.4544 5.7738 36.0629C4.14266 37.0986 3.62482 39.4161 4.4404 41.9407C4.4404 41.9536 4.45335 41.9666 4.45335 41.9795C4.62164 42.4844 8.77719 54.2531 13.7225 59.1858C14.0072 59.4706 14.3697 59.613 14.7451 59.613C15.1206 59.613 15.483 59.4706 15.7678 59.1858C16.3375 58.6161 16.3245 57.7099 15.7678 57.1402C11.3663 52.7512 7.36611 41.5264 7.18487 41.0344C6.8224 39.8951 6.88714 38.7817 7.32729 38.4969C7.62503 38.3156 7.97457 38.2509 8.31116 38.3286C8.67365 38.4192 8.95845 38.6652 9.17852 39.0536L13.4894 46.5239C13.8131 47.0935 14.4863 47.3654 15.1076 47.1971C15.7419 47.0288 16.1821 46.4591 16.1821 45.7989V21.9638C16.1821 21.1223 16.8682 20.4232 17.7227 20.4232C18.5641 20.4232 19.2632 21.1094 19.2632 21.9638V38.4969C19.2632 39.2996 19.9105 39.934 20.7002 39.934C21.5028 39.934 22.1371 39.2866 22.1371 38.4969V31.3632C22.1371 31.3503 22.15 31.3373 22.15 31.3243C22.2277 30.5475 22.8879 29.952 23.6776 29.952C24.5191 29.952 25.2182 30.6382 25.2182 31.4927V33.4476V34.9883V39.0277C25.2182 39.8304 25.8655 40.4648 26.6551 40.4648C27.4578 40.4648 28.0921 39.8174 28.0921 39.0277V34.9883V33.4476C28.0921 32.6061 28.7782 31.907 29.6326 31.907C30.4741 31.907 31.1732 32.5932 31.1732 33.4476V35.3767C31.1732 35.4673 31.1861 35.5579 31.199 35.6486C31.1861 35.8039 31.1732 35.9593 31.1732 36.1276V39.0406C31.1732 39.8433 31.8204 40.4777 32.6101 40.4777C33.3998 40.4777 34.0471 39.8304 34.0471 39.0406V36.1276C34.0471 35.2861 34.7332 34.587 35.5876 34.587C36.5585 34.587 36.9858 35.7392 37.1281 36.3348C37.2058 37.746 37.8661 50.874 35.4064 56.9072C35.1086 57.6451 35.4582 58.4867 36.1961 58.7845C36.3773 58.8621 36.5585 58.888 36.7398 58.888C37.3094 58.888 37.8531 58.5514 38.0732 57.9947C40.9471 51.0293 40.0798 36.6325 40.0409 36.0241V36.024Z" fill="#FEE715"/>
<path fill-rule="evenodd" clip-rule="evenodd" d="M3.56177 26.671C3.83575 26.671 4.12582 26.6066 4.38369 26.4776C5.27007 26.0264 5.60851 24.9467 5.15727 24.0603C4.12584 22.062 3.61011 19.9187 3.61011 17.6464C3.61011 9.89487 9.9115 3.59374 17.6633 3.59374C25.4152 3.59374 31.7166 9.89487 31.7166 17.6464C31.7166 18.8712 31.5554 20.0798 31.2492 21.2562C30.9913 22.2232 31.5715 23.2062 32.5224 23.4479C33.4893 23.7058 34.4724 23.1256 34.7141 22.1748C35.1009 20.7083 35.2943 19.1935 35.2943 17.6464C35.2943 7.91268 27.3813 1.00002e-05 17.6472 1.00002e-05C7.91311 1.00002e-05 0.000108259 7.91268 0.000108259 17.6464C0.000108259 20.4344 0.676979 23.2223 1.93403 25.688C2.27247 26.3165 2.901 26.671 3.56176 26.671L3.56177 26.671Z" fill="#333333"/>
</svg>
