<svg width="21" height="21" viewBox="0 0 21 21" fill="none" xmlns="http://www.w3.org/2000/svg">
<path fill-rule="evenodd" clip-rule="evenodd" d="M0.608398 13.3473C0.608248 13.7375 0.924498 14.0539 1.31473 14.054H6.26447V0.976L0.609138 6.93141L0.608408 13.3473M13.4582 20.5C13.8477 20.4989 14.163 20.1828 14.163 19.7933V14.8441H1.08609L7.04056 20.4986L13.4582 20.5M20.6139 7.65346C20.6141 7.46612 20.5396 7.28643 20.407 7.1541C20.2744 7.02177 20.0946 6.94771 19.9072 6.94827H14.9578V20.0253L20.6116 14.0684L20.6139 7.65346ZM7.76471 0.5C7.37442 0.49989 7.05783 0.81604 7.0574 1.20634V6.15609H20.1348L14.1795 0.50154L7.76471 0.50001" fill="#0765BE"/>
</svg>
