<svg width="82" height="17" viewBox="0 0 82 17" fill="none" xmlns="http://www.w3.org/2000/svg">
<path fill-rule="evenodd" clip-rule="evenodd" d="M41.1538 4.04826L43.9284 10.376H38.3967L41.1538 4.04826ZM39.6407 0.888697L32.4203 16.1106H35.8334L37.2396 12.967H45.085L46.4868 16.1106H49.9135L42.6767 0.888507L39.6407 0.888697M54.987 0.880077C53.1449 0.880077 51.2597 1.98596 51.2597 4.8324V5.56365C51.2597 8.52909 53.0755 9.66238 54.8908 9.67062H61.2672C61.9293 9.67062 62.4676 9.78023 62.4676 10.9001L62.4668 12.1943C62.4503 13.1977 61.9473 13.4298 61.2444 13.4298H52.8567L51.1384 16.1085H61.4407C63.9264 16.1085 65.613 14.8731 65.613 12.0167V10.9674C65.613 8.20639 64.0462 6.90351 61.6158 6.90351H55.5278C54.8523 6.90351 54.3826 6.71821 54.3826 5.71849L54.3819 4.66607C54.3819 3.81466 54.7053 3.50365 55.4916 3.50365L63.4792 3.50058L65.1492 0.877197L54.987 0.880077M4.79893 0.884477C1.61044 0.884477 0 2.82107 0 5.64126V11.3259C0 14.5886 2.07418 16.1126 4.78245 16.1126L14.3953 16.1106L12.6145 13.328H5.37572C3.83867 13.328 3.16913 12.7725 3.16913 11.0513V5.89459C3.16913 4.23049 3.73232 3.58126 5.41673 3.58126H12.69L14.4008 0.884667L4.79892 0.884477M68.4347 0.886397V16.1095L81.8801 16.1087L80.1763 13.4298H71.509V9.57059H79.9017V6.98898H71.509V3.50365H80.1621L81.8314 0.886397H68.4347M27.667 0.886397V6.92536H19.2526V0.886397L16.1891 0.885247V16.1122H19.2526V9.57059H27.667V16.1122H30.7361V0.886407H27.667" fill="white"/>
</svg>
